PathFileType	4	(X/Y/Z)	C:/Users/beibeiliu/ov580/test_trc\sequence.30_training_dense_left.trc
DataRate	CameraRate	NumFrames	NumMarkers	Units	OrigDataRate	OrigDataStartFrame	OrigNumFrames
120	120	14	19	mm	120	89	354
Frame#	Time	ThumbCMC			ThumbMCP			ThumbIP			ThumbTip			IndexMCP			IndexPIP			IndexTip			MiddleMCP			MiddlePIP			MiddleTip			RingMCP			RingPIP			RingTip			PinkyMCP			PinkyPIP			PinkyTip			BackHand1			BackHand2			BackHand3	
		X0	Y0	Z0	X1	Y1	Z1	X2	Y2	Z2	X3	Y3	Z3	X4	Y4	Z4	X5	Y5	Z5	X6	Y6	Z6	X7	Y7	Z7	X8	Y8	Z8	X9	Y9	Z9	X10	Y10	Z10	X11	Y11	Z11	X12	Y12	Z12	X13	Y13	Z13	X14	Y14	Z14	X15	Y15	Z15	X16	Y16	Z16	X17	Y17	Z17	X18	Y18	Z18	
88	0.733333	-259.585	43.0278	46.7614	-256.607	50.707	24.8406	-259.152	54.6499	-0.87838	-259.014	58.6716	-17.7232	-218.865	31.6382	-3.38878	-200.128	50.3541	12.48	-216.997	46.7614	34.2544	-202.095	21.6105	4.17146	-191.041	40.2335	23.896	-213.505	40.6973	42.6467	-197.732	8.89984	18.8325	-192.888	30.9511	33.256	-216.056	27.0059	48.7148	-195.573	1.23112	27.4971	-191.103	20.6259	40.2255	-211.916	19.377	54.6995	-240.639	-7.7736	39.1239	-253.19	-5.71455	61.5905	-259.383	14.6477	36.4359	
89	0.741667	-259.365	39.4698	46.6232	-257.021	46.9264	24.204	-256.677	48.953	0.647323	-259.843	56.5843	-13.0296	-217.011	33.4776	-2.50002	-201.636	52.425	12.9213	-223.035	50.6554	34.3921	-200.718	25.2111	5.10306	-193.052	47.2172	23.3655	-215.242	41.1295	44.6345	-195.078	16.3686	18.3942	-191.819	36.3506	36.7403	-216.853	30.325	47.7676	-190.425	2.99398	31.9316	-190.812	26.3529	43.6227	-215.445	20.9407	51.5536	-232.538	-9.72709	41.2442	-248.246	-8.2884	63.6275	-257.838	10.7284	37.1998	
90	0.75	-262.245	39.3883	47.4749	-255.527	44.4667	24.0001	-257.836	49.399	-1.91868	-258.501	52.4021	-17.4061	-216.375	30.8302	-2.36077	-200.146	52.0678	9.30493	-221.585	48.56	34.0086	-203.648	23.7504	6.11457	-190.931	46.7303	21.0547	-216.281	40.971	44.205	-195.4	16.4223	18.786	-192.486	39.1914	36.6427	-217.923	26.5909	50.5416	-185.306	9.32865	33.649	-190.345	29.605	42.7473	-213.038	23.4621	51.5858	-231.688	-6.25634	40.256	-242.779	-8.428	62.7044	-258.078	8.87642	38.2482	
91	0.758333	-262.067	37.3699	46.0777	-258.205	45.9796	22.9919	-256.666	49.2112	0.893371	-255.892	52.1427	-14.513	-213.864	35.4065	-4.34677	-200.45	51.4339	10.4599	-220.528	49.0299	32.7963	-204.218	24.2658	4.37747	-192.958	49.0696	23.5696	-215.471	40.8531	43.9297	-189.983	20.2958	18.5676	-190.392	37.6139	37.3866	-213.976	27.76	50.6595	-188.677	6.72327	33.246	-190.076	28.792	46.5622	-214.438	19.7986	55.2718	-229.84	-8.55799	38.8722	-243.803	-9.30097	60.3542	-253.107	7.33878	37.5978	
92	0.766667	-260.082	37.153	47.1929	-253.808	43.7301	25.5723	-254.668	46.2864	-0.954581	-252.598	48.9091	-17.1981	-215.076	30.4997	-2.17472	-199.233	51.3238	11.3329	-216.267	48.0151	32.896	-199.248	21.2831	6.03848	-189.189	44.3201	23.0742	-215.702	40.7219	43.1913	-188.969	16.2647	20.6247	-191.233	36.9505	38.9331	-214.307	29.6572	49.153	-185.062	6.86916	33.8454	-189.539	28.3672	45.7225	-214.956	18.296	52.2108	-226.867	-10.9191	41.5391	-245.891	-8.04348	64.0919	-251.885	5.23485	42.6897	
93	0.775	-257.8	35.9933	47.7387	-253.274	42.6274	21.6942	-252.08	45.8679	2.71712	-255.402	52.5264	-15.4321	-216.794	31.3934	-4.51503	-198.823	51.4051	8.4486	-219.6	48.3145	33.3744	-197.988	25.3599	4.53616	-188.338	45.2967	21.1775	-211.406	38.9144	44.3921	-186.87	17.4518	21.123	-189.527	35.7243	36.8626	-216.304	27.527	47.3862	-186.782	7.9629	31.6788	-190.461	28.6341	44.9363	-214.219	16.9115	52.1201	-229.881	-9.81003	38.5569	-244.584	-6.56188	61.2655	-253.444	5.43647	40.1814	
94	0.783333	-256.71	33.6608	49.1588	-255.38	45.6399	22.7952	-253.753	46.4194	-1.73777	-252.98	50.1499	-15.5532	-213.499	34.3294	-4.47269	-197.291	49.3682	10.4722	-216.711	48.8371	32.345	-198.5	26.1414	4.0154	-190.349	47.6118	22.9638	-213.669	38.0292	45.5926	-188.467	17.1913	20.5791	-190.72	36.9521	35.687	-215.689	25.2975	50.7216	-186.561	8.46341	32.678	-186.32	26.0316	48.0212	-214.27	18.9237	55.0866	-229.013	-8.00238	39.9504	-244.289	-9.64889	61.6614	-251.038	4.42473	40.5054	
95	0.791667	-257.584	33.0528	47.7522	-255.67	44.6984	24.5961	-252.817	42.5978	-0.469727	-255.079	51.8242	-15.9084	-211.633	33.2805	-4.61519	-198.245	49.946	12.6144	-219.598	44.4932	34.1547	-196.384	23.2772	6.36345	-188.775	45.7792	20.7724	-213.238	38.026	45.4194	-187.66	16.5468	22.2078	-189.199	35.4631	36.8999	-212.958	28.1168	50.547	-184.766	4.54396	35.3941	-191.465	27.9398	49.7153	-215.104	19.3872	52.2858	-226.655	-12.258	38.1316	-243.797	-7.87884	62.1742	-254.99	6.04418	36.9788	
96	0.8	-259.001	32.9086	45.7102	-255.54	40.4666	21.9473	-256.599	44.6594	-4.04159	-255.968	47.9682	-18.8956	-215.655	32.6872	-3.93876	-202.952	54.5895	10.3154	-222.624	46.1659	34.3766	-200.708	22.2258	7.57354	-190.554	45.695	24.7716	-213.717	40.766	45.2615	-191.179	19.2277	19.2425	-193.501	39.1519	37.5706	-215.022	27.917	50.2128	-185.756	10.9349	33.5	-193.102	29.2455	47.4657	-213.903	19.178	55.8124	-226.312	-11.5842	39.3867	-242.701	-12.4451	60.967	-255.488	7.45276	39.9317	
97	0.808333	-259.989	31.5762	46.9879	-258.05	40.6744	22.8192	-256.002	41.6024	1.32516	-259.578	46.108	-20.7579	-220.471	31.8589	-5.10534	-206.283	55.7836	11.1091	-226.909	47.1979	32.9991	-200.722	23.1799	8.19294	-195.301	49.041	24.9692	-219.329	41.924	43.6982	-192.323	20.4394	19.7219	-193.331	39.2066	38.9852	-216.622	28.1208	51.382	-186.575	12.1199	33.6131	-195.425	32.2938	46.5763	-217.35	19.9132	55.3422	-228.858	-10.1649	38.0635	-242.658	-10.3884	65.8445	-252.305	3.70055	38.331	
98	0.816667	-265.908	30.7184	46.3232	-264.345	40.8057	22.4857	-260.936	38.7795	-3.13466	-260.277	41.0303	-18.6095	-220.708	30.8512	-3.295	-210.012	55.0541	11.2407	-228.143	48.0516	32.8138	-203.399	25.5931	7.18369	-197.792	50.0007	20.3107	-223.158	40.0259	43.3769	-192.965	21.6498	20.7997	-194.686	40.3548	37.4877	-218.141	31.1263	49.6878	-188.578	14.0818	33.9422	-197.152	33.5188	45.3981	-219.186	20.0801	55.4022	-226.469	-10.0085	39.4759	-241.547	-11.0857	66.6971	-256.28	4.50905	42.0837	
99	0.825	-263.682	26.4629	44.768	-264.563	35.6523	20.6274	-264.628	38.1634	-0.347788	-264.209	41.3748	-16.9265	-220.295	32.5679	-3.43892	-210.919	54.3841	8.57023	-230.637	46.5409	33.107	-205.22	24.7831	6.75501	-201.821	51.4209	22.4495	-225.942	40.3268	42.4773	-193.074	23.7339	21.0183	-199.995	43.0732	35.335	-221.979	31.0706	47.6005	-191.395	13.1684	32.4632	-196.084	34.5825	44.4737	-217.267	23.5138	53.1717	-226.414	-12.341	41.9363	-241.81	-11.3092	63.6586	-255.965	-0.974293	43.0943	
100	0.833333	-265.723	26.0088	49.908	-267.494	34.0561	20.9887	-266.051	35.1937	0.995555	-268.633	38.8966	-16.4068	-223.846	31.1286	-3.16708	-213.288	53.4441	8.22522	-231.975	44.7087	34.1957	-203.566	29.0568	6.27311	-202.118	52.006	21.3737	-227.731	41.8589	41.4772	-196.233	22.4824	19.9308	-201.596	44.3405	33.9854	-223.131	29.404	49.6576	-187.491	16.3666	35.3345	-197.965	36.811	43.6692	-218.882	24.5064	54.4077	-224.557	-11.8294	42.062	-243.264	-10.7851	67.1176	-255.37	0.508813	41.6952	
101	0.841667	-266.643	22.1869	44.6778	-264.99	30.3273	24.2017	-264.23	30.6423	1.47108	-269.237	34.4829	-16.1494	-225.118	31.604	-3.37234	-217.46	54.431	7.55293	-233.751	43.2485	35.3068	-208.009	26.778	7.08794	-205.751	52.5046	25.104	-225.293	40.1869	44.2157	-197.094	25.7303	19.6199	-204.625	45.6221	39.1551	-223.57	30.0472	50.3091	-188.38	18.5869	34.7614	-199.137	38.1425	42.6818	-219.429	23.4278	56.2136	-224.591	-12.2455	42.5935	-237.386	-12.3524	64.7351	-254.335	-3.4637	38.4896	
